<svg id="Layer_1" data-name="Layer 1" xmlns="http://www.w3.org/2000/svg" xmlns:xlink="http://www.w3.org/1999/xlink" viewBox="0 0 1360.13 304.75"><defs><style>.cls-1{fill:url(#linear-gradient);}</style><linearGradient id="linear-gradient" x1="-66.52" y1="151.74" x2="1293.61" y2="151.74" gradientTransform="translate(66.52 0.64)" gradientUnits="userSpaceOnUse"><stop offset="0" stop-color="#29abe2"/><stop offset="1" stop-color="#22b573"/></linearGradient></defs><path class="cls-1" d="M30.31,283.77Q0,262.78,0,224.22a112.32,112.32,0,0,1,.85-11.45H76.29Q75,228.9,83.92,238.21t27.13,9.32q16.53,0,26.07-7.21T146.65,220q0-13.56-12.08-22T97.06,178.87Q72.47,168.69,57,159.58a89.32,89.32,0,0,1-26.92-24.8Q18.65,119.1,18.65,95.37,18.22,66.12,33.06,44.5T74.17,11.44Q100.45,0,134.36,0q30.52,0,54.25,9.54t36.88,27.55q13.13,18,13.14,42.59a75.71,75.71,0,0,1-.42,9.33H161.06a22.65,22.65,0,0,0,.43-5.09q0-11.85-8.27-19.28t-22.67-7.42q-15.27,0-24.8,7.42T96.21,84.77q0,12.72,11.87,21.4T145,126.31q25,11.44,40.9,21.19a92.09,92.09,0,0,1,27.34,26.07q11.45,16.32,11.44,40.05,0,26.3-14,47.05t-40.26,32.42q-26.29,11.67-61.46,11.66Q60.61,304.75,30.31,283.77Z"/><path class="cls-1" d="M520.91,4.24l-9.75,57.22H431.9L389.52,301.78H317L359.42,61.46H280.59L290.76,4.24Z"/><path class="cls-1" d="M699.35,249.23H588.3l-27.13,52.55H485.3L645.52,4.24h83.92l55.1,297.54H707.83Zm-8.48-55.11L673.49,83.92,616.7,194.12Z"/><path class="cls-1" d="M1061.74,25.22q24.16,21,24.16,54.46a93.66,93.66,0,0,1-1.69,18.23q-5.09,29.67-25.86,53T1002.83,184l47.89,117.83h-81.8L927,189.46H909.58L889.66,301.78H817.18L869.74,4.24H991.38Q1037.58,4.24,1061.74,25.22ZM1010.88,92q0-13.56-8.69-21t-25.64-7.42H931.62l-13.14,74.6h44.93q19.92,0,31.58-9.75t15-27.55Q1010.89,94.1,1010.88,92Z"/><path class="cls-1" d="M1360.13,4.24l-9.75,57.22h-79.26l-42.38,240.32h-72.48l42.38-240.32h-78.83L1130,4.24Z"/></svg>