<svg id="Layer_1" data-name="Layer 1" xmlns="http://www.w3.org/2000/svg" xmlns:xlink="http://www.w3.org/1999/xlink" viewBox="0 0 1080 1080"><defs><style>.cls-1{fill:url(#linear-gradient);}.cls-2{fill:url(#linear-gradient-2);}.cls-3{fill:url(#linear-gradient-3);}</style><linearGradient id="linear-gradient" x1="893.38" y1="220.8" x2="207.08" y2="835.61" gradientUnits="userSpaceOnUse"><stop offset="0" stop-color="#0071e9"/><stop offset="1" stop-color="#15ff93"/></linearGradient><linearGradient id="linear-gradient-2" x1="894.68" y1="222.25" x2="208.38" y2="837.06" xlink:href="#linear-gradient"/><linearGradient id="linear-gradient-3" x1="894.69" y1="222.27" x2="208.39" y2="837.07" xlink:href="#linear-gradient"/></defs><path class="cls-1" d="M537.06,344.44c-107.82,0-195.5,87.76-195.5,195.58s87.68,195.51,195.5,195.51S732.56,647.85,732.56,540,644.88,344.44,537.06,344.44Zm104.28,306.5-6.65-26.34s-8.56,27.95-28.61,39.39-62.11,22.34-69,41.5c-6.92-19.16-48.95-30.06-69-41.5s-28.62-39.39-28.62-39.39l-6.67,26.34c-35.91-50-8.23-122.65-8.23-122.65,32.72,61.74,69.92,82.58,69.92,82.58l-27.28-.54c1.17,2.52,9.82,20.54,27.32,23.42,2.9.46,10.9,1.77,17.22-2.86a14.37,14.37,0,0,0,2.65-2.5V482.73a45.28,45.28,0,0,1-18-19.19s0-.06,0-.08c-5-9.78-56-14.36-56-14.36H427.18V415.75h73.88a45.4,45.4,0,0,1,72,0h73.36V449.1H633.8s-51,4.58-56,14.36c0,0,0,.06,0,.08a45.5,45.5,0,0,1-18,19.19V628.37a14,14,0,0,0,2.67,2.52c6.31,4.63,14.31,3.32,17.19,2.84,17.51-2.86,26.16-20.88,27.32-23.4l-27.28.54s37.23-20.84,70-82.58C649.6,528.29,677.25,600.93,641.34,650.94Z"/><path class="cls-2" d="M540,196.64c-189.32,0-343.34,154-343.34,343.34S350.68,883.32,540,883.32,883.34,729.3,883.34,540,729.32,196.64,540,196.64ZM791.07,540c0,140.09-113.92,254-254,254s-254-113.93-254-254S397,285.93,537.06,285.93a252.51,252.51,0,0,1,184.22,79.49l95.79-4.18L772.94,446A251.52,251.52,0,0,1,791.07,540Z"/><path class="cls-3" d="M984.91,534.6a11.15,11.15,0,0,0-11.15-11.15H959.25a11.19,11.19,0,0,1-11.12-10.55,410.07,410.07,0,0,0-6.9-52.61,11.19,11.19,0,0,1,8-13.05l14-3.74a11.17,11.17,0,0,0,7.89-13.67l-2.74-10.18a11.16,11.16,0,0,0-13.66-7.89l-13.84,3.72a11.18,11.18,0,0,1-13.46-7.3,406.52,406.52,0,0,0-20.42-49,11.19,11.19,0,0,1,4.35-14.7l12.5-7.21A11.16,11.16,0,0,0,927.91,322l-5.28-9.13a11.15,11.15,0,0,0-15.24-4.08l-12.55,7.25A11.18,11.18,0,0,1,880,312.52a410.59,410.59,0,0,0-32.31-42.1,11.19,11.19,0,0,1,.4-15.31l10.25-10.25a11.15,11.15,0,0,0,0-15.78l-7.46-7.45a11.14,11.14,0,0,0-15.77,0l-10.25,10.25a11.18,11.18,0,0,1-15.31.41A410.63,410.63,0,0,0,767.39,200a11.17,11.17,0,0,1-3.56-14.89l7.24-12.56A11.14,11.14,0,0,0,767,157.31L757.86,152a11.15,11.15,0,0,0-15.24,4.08l-7.21,12.5a11.18,11.18,0,0,1-14.7,4.35,404.8,404.8,0,0,0-49-20.4,11.19,11.19,0,0,1-7.3-13.46l3.71-13.85a11.15,11.15,0,0,0-7.89-13.65L650,108.88a11.14,11.14,0,0,0-13.66,7.88l-3.74,14a11.18,11.18,0,0,1-13,8A409.83,409.83,0,0,0,567,131.86a11.18,11.18,0,0,1-10.55-11.11V106.24a11.15,11.15,0,0,0-11.15-11.15H534.73a11.16,11.16,0,0,0-11.16,11.15v14.51A11.17,11.17,0,0,1,513,131.86a409.43,409.43,0,0,0-53,7,11.17,11.17,0,0,1-13.05-8l-3.76-14A11.16,11.16,0,0,0,429.5,109l-10.19,2.75a11.14,11.14,0,0,0-7.87,13.66l3.73,13.85a11.19,11.19,0,0,1-7.29,13.47,405.67,405.67,0,0,0-49,20.44,11.19,11.19,0,0,1-14.71-4.33L337,156.34a11.16,11.16,0,0,0-15.24-4.07l-9.13,5.28a11.16,11.16,0,0,0-4.07,15.24l7.27,12.56a11.18,11.18,0,0,1-3.55,14.89,409.41,409.41,0,0,0-42.07,32.34,11.18,11.18,0,0,1-15.31-.39L244.6,222a11.15,11.15,0,0,0-15.77,0l-7.45,7.47a11.15,11.15,0,0,0,0,15.77l10.26,10.24a11.19,11.19,0,0,1,.42,15.31,409.09,409.09,0,0,0-32.26,42.13,11.19,11.19,0,0,1-14.89,3.58l-12.56-7.24a11.15,11.15,0,0,0-15.23,4.1l-5.27,9.14a11.15,11.15,0,0,0,4.1,15.23l12.51,7.21a11.18,11.18,0,0,1,4.36,14.69,404.88,404.88,0,0,0-20.36,49A11.19,11.19,0,0,1,139,415.92l-13.85-3.7a11.15,11.15,0,0,0-13.65,7.9l-2.72,10.19a11.15,11.15,0,0,0,7.9,13.65l14,3.73a11.19,11.19,0,0,1,8,13,408.19,408.19,0,0,0-6.84,52.62,11.18,11.18,0,0,1-11.1,10.56H106.23a11.17,11.17,0,0,0-11.15,11.17v10.54a11.16,11.16,0,0,0,11.16,11.15l14.51,0a11.19,11.19,0,0,1,11.12,10.54,409.63,409.63,0,0,0,6.94,52.61,11.18,11.18,0,0,1-8,13.05l-14,3.76A11.15,11.15,0,0,0,109,650.39l2.73,10.18a11.16,11.16,0,0,0,13.67,7.88l13.85-3.72A11.17,11.17,0,0,1,152.68,672a406.48,406.48,0,0,0,20.44,49,11.18,11.18,0,0,1-4.34,14.7l-12.49,7.22a11.15,11.15,0,0,0-4.08,15.24l5.29,9.13a11.15,11.15,0,0,0,15.23,4.07l12.56-7.26a11.18,11.18,0,0,1,14.89,3.55,410.53,410.53,0,0,0,32.33,42.08,11.19,11.19,0,0,1-.39,15.31l-10.25,10.26a11.16,11.16,0,0,0,0,15.78l7.46,7.45a11.16,11.16,0,0,0,15.78,0l10.24-10.25a11.18,11.18,0,0,1,15.31-.42,410.47,410.47,0,0,0,42.12,32.27A11.19,11.19,0,0,1,316.37,895l-7.24,12.56a11.15,11.15,0,0,0,4.09,15.23l9.14,5.27A11.15,11.15,0,0,0,337.59,924l7.21-12.51a11.18,11.18,0,0,1,14.69-4.36,407.13,407.13,0,0,0,49,20.38A11.17,11.17,0,0,1,415.81,941l-3.7,13.85a11.15,11.15,0,0,0,7.9,13.66l10.19,2.72a11.15,11.15,0,0,0,13.65-7.89l3.74-14a11.18,11.18,0,0,1,13-8,408.28,408.28,0,0,0,52.61,6.85,11.19,11.19,0,0,1,10.56,11.11v14.52A11.14,11.14,0,0,0,535,984.91h10.54a11.14,11.14,0,0,0,11.15-11.16V959.24a11.19,11.19,0,0,1,10.55-11.12,410.09,410.09,0,0,0,52.61-6.92,11.18,11.18,0,0,1,13.05,8l3.75,14a11.15,11.15,0,0,0,13.66,7.88l10.19-2.73a11.16,11.16,0,0,0,7.88-13.67l-3.72-13.84a11.18,11.18,0,0,1,7.3-13.46,406.43,406.43,0,0,0,49-20.43,11.18,11.18,0,0,1,14.7,4.35l7.22,12.49a11.16,11.16,0,0,0,15.24,4.08l9.13-5.28a11.15,11.15,0,0,0,4.07-15.24L764,894.77a11.18,11.18,0,0,1,3.55-14.89,408.07,408.07,0,0,0,42.09-32.32A11.19,11.19,0,0,1,825,848l10.26,10.25a11.15,11.15,0,0,0,15.77,0l7.46-7.46a11.15,11.15,0,0,0,0-15.77L848.2,824.73a11.18,11.18,0,0,1-.41-15.31,411.66,411.66,0,0,0,32.28-42.12A11.18,11.18,0,0,1,895,763.73L907.52,771a11.15,11.15,0,0,0,15.23-4.08l5.27-9.14a11.16,11.16,0,0,0-4.08-15.24l-12.51-7.21a11.17,11.17,0,0,1-4.35-14.69,405.83,405.83,0,0,0,20.39-49,11.18,11.18,0,0,1,13.46-7.3l13.84,3.7a11.16,11.16,0,0,0,13.66-7.89l2.72-10.19a11.15,11.15,0,0,0-7.89-13.66l-14-3.74a11.18,11.18,0,0,1-8-13,408.29,408.29,0,0,0,6.87-52.61,11.2,11.2,0,0,1,11.11-10.56h14.52a11.16,11.16,0,0,0,11.15-11.16ZM540,909.17c-203.57,0-369.19-165.61-369.19-369.19S336.43,170.8,540,170.8,909.19,336.41,909.19,540,743.57,909.17,540,909.17Z"/></svg>