<?xml version="1.0" encoding="utf-8"?>
<!-- Generator: Adobe Illustrator 26.0.1, SVG Export Plug-In . SVG Version: 6.00 Build 0)  -->
<svg version="1.1" id="Layer_1" xmlns="http://www.w3.org/2000/svg" xmlns:xlink="http://www.w3.org/1999/xlink" x="0px" y="0px"
	 viewBox="0 0 696.1 137.7" style="enable-background:new 0 0 696.1 137.7;" xml:space="preserve">
<style type="text/css">
	.st0{fill:#05018A;}
	.st1{fill:none;stroke:#E7B546;stroke-width:2;stroke-miterlimit:10;}
	.st2{fill:#FFFFFF;}
	.st3{fill:#E7B546;}
</style>
<g>
	<g>
		<path class="st0" d="M195.1,81.6c0,8.6,7,12.6,33.5,12.6c22,0,28.6-2.4,28.6-8.8c0-6.8-4.6-7.9-31.1-9.2
			c-35.5-1.6-49.6-7.2-49.6-25.5c0-17.9,18.3-23.6,48.8-23.6c30.7,0,49.4,7.7,49.4,27.8h-20.9c0-9-9-11.2-30.7-11.2
			c-20.6,0-25.5,2-25.5,8c0,6.3,4.9,7.5,28.6,8.8c32.1,1.8,52,3.5,52,24.1c0,21.8-20.6,26.2-50.7,26.2c-33.4,0-53.3-5.7-53.3-29.2
			L195.1,81.6z"/>
		<path class="st0" d="M378.3,45.7h-39.6v63.9h-21V45.7h-39.5V28.1h100.1V45.7z"/>
		<path class="st0" d="M440.6,92.3h-48.8l-8.7,17.3H360l42-81.5h28.3l42.1,81.5h-23.1L440.6,92.3z M432.8,76.7l-16.5-33l-16.6,33
			H432.8z"/>
		<path class="st0" d="M555,85.4l15,24.2h-24.7l-13.2-21.8h-33.7v21.8h-21V28.1h64c18.5,0,31.2,11.7,31.2,29.9
			C572.7,71.3,565.9,81.1,555,85.4z M498.4,70.3h37.2c6.3,0,16.1,0,16.1-12.2s-9.8-12.3-16.1-12.3h-37.2V70.3z"/>
		<path class="st0" d="M677.1,45.7h-39.6v63.9h-21V45.7H577V28.1h100.1L677.1,45.7z"/>
	</g>
	<g>
		<path class="st1" d="M195.1,81.6c0,8.6,7,12.6,33.5,12.6c22,0,28.6-2.4,28.6-8.8c0-6.8-4.6-7.9-31.1-9.2
			c-35.5-1.6-49.6-7.2-49.6-25.5c0-17.9,18.3-23.6,48.8-23.6c30.7,0,49.4,7.7,49.4,27.8h-20.9c0-9-9-11.2-30.7-11.2
			c-20.6,0-25.5,2-25.5,8c0,6.3,4.9,7.5,28.6,8.8c32.1,1.8,52,3.5,52,24.1c0,21.8-20.6,26.2-50.7,26.2c-33.4,0-53.3-5.7-53.3-29.2
			L195.1,81.6z"/>
		<path class="st1" d="M378.3,45.7h-39.6v63.9h-21V45.7h-39.5V28.1h100.1V45.7z"/>
		<path class="st1" d="M440.6,92.3h-48.8l-8.7,17.3H360l42-81.5h28.3l42.1,81.5h-23.1L440.6,92.3z M432.8,76.7l-16.5-33l-16.6,33
			H432.8z"/>
		<path class="st1" d="M555,85.4l15,24.2h-24.7l-13.2-21.8h-33.7v21.8h-21V28.1h64c18.5,0,31.2,11.7,31.2,29.9
			C572.7,71.3,565.9,81.1,555,85.4z M498.4,70.3h37.2c6.3,0,16.1,0,16.1-12.2s-9.8-12.3-16.1-12.3h-37.2V70.3z"/>
		<path class="st1" d="M677.1,45.7h-39.6v63.9h-21V45.7H577V28.1h100.1L677.1,45.7z"/>
	</g>
</g>
<g>
	<ellipse class="st2" cx="98.5" cy="68.9" rx="48" ry="67.1"/>
	<g>
		<path class="st3" d="M98.5,3c25.8,0,46.7,29.5,46.7,65.9s-20.9,65.9-46.7,65.9s-46.7-29.5-46.7-65.9S72.7,3,98.5,3 M98.5,0.4
			c-13.3,0-25.8,7.2-35.1,20.4c-9.1,12.9-14.1,29.9-14.1,48.1s5,35.2,14.1,48.1c9.3,13.1,21.8,20.4,35.1,20.4s25.8-7.2,35.1-20.4
			c9.1-12.9,14.1-29.9,14.1-48.1s-5-35.2-14.1-48.1C124.3,7.7,111.8,0.4,98.5,0.4L98.5,0.4z"/>
	</g>
</g>
<g>
	<defs>
		<rect id="SVGID_1_" x="69.5" y="18.1" width="58.8" height="99.3"/>
	</defs>
	<clipPath id="SVGID_00000059995911179908856420000002220665923275105974_">
		<use xlink:href="#SVGID_1_"  style="overflow:visible;"/>
	</clipPath>
	<g style="clip-path:url(#SVGID_00000059995911179908856420000002220665923275105974_);">
		
			<image style="overflow:visible;" width="400" height="400" xlink:href="443318A.jpg"  transform="matrix(0.5142 0 0 0.5142 -2.7128 -34.3273)">
		</image>
	</g>
</g>
</svg>
