<svg id="Layer_1" data-name="Layer 1" xmlns="http://www.w3.org/2000/svg" xmlns:xlink="http://www.w3.org/1999/xlink" viewBox="0 0 696.08 137.72"><defs><style>.cls-1{fill:url(#linear-gradient);}.cls-2{fill:url(#linear-gradient-6);}.cls-3{fill:url(#linear-gradient-7);}.cls-4{fill:url(#linear-gradient-8);}</style><linearGradient id="linear-gradient" x1="639.06" y1="65.85" x2="134.32" y2="71.74" gradientUnits="userSpaceOnUse"><stop offset="0" stop-color="#0071e9"/><stop offset="1" stop-color="#15ff93"/></linearGradient><linearGradient id="linear-gradient-6" x1="55.07" y1="68.86" x2="112.28" y2="68.86" xlink:href="#linear-gradient"/><linearGradient id="linear-gradient-7" x1="33.86" y1="68.86" x2="134.34" y2="68.86" xlink:href="#linear-gradient"/><linearGradient id="linear-gradient-8" x1="19" y1="68.86" x2="149.21" y2="68.86" xlink:href="#linear-gradient"/></defs><path class="cls-1" d="M195.09,81.55c0,8.61,7,12.57,33.52,12.57,22,0,28.63-2.45,28.63-8.85,0-6.75-4.65-7.91-31.07-9.19-35.5-1.63-49.58-7.22-49.58-25.49,0-17.92,18.27-23.63,48.76-23.63,30.73,0,49.35,7.68,49.35,27.82H253.75c0-9-9-11.17-30.72-11.17-20.6,0-25.49,2-25.49,8,0,6.28,4.89,7.45,28.63,8.84,32.12,1.75,52,3.49,52,24.09,0,21.77-20.6,26.19-50.74,26.19-33.4,0-53.31-5.7-53.31-29.21Z"/><path class="cls-1" d="M378.29,45.7H338.72v63.9h-21V45.7H278.2V28.13H378.29Z"/><path class="cls-1" d="M440.56,92.26H391.8l-8.73,17.34H360l42-81.47h28.28l42.13,81.47H449.29Zm-7.79-15.6-16.53-33L399.6,76.66Z"/><path class="cls-1" d="M555,85.39l15,24.21H545.32L532.17,87.83H498.42V109.6H477.47V28.13h64c18.5,0,31.19,11.75,31.19,29.91C572.67,71.31,565.92,81.08,555,85.39ZM498.42,70.26h37.24c6.28,0,16.06,0,16.06-12.22S541.94,45.7,535.66,45.7H498.42Z"/><path class="cls-1" d="M677.08,45.7H637.5v63.9h-21V45.7H577V28.13h100.1Z"/><path class="cls-2" d="M83.67,40.25a28.61,28.61,0,1,0,28.61,28.62A28.64,28.64,0,0,0,83.67,40.25ZM98.93,85.1l-1-3.86S96.71,85.33,93.77,87s-9.08,3.27-10.1,6.08c-1-2.81-7.16-4.4-10.1-6.08s-4.18-5.76-4.18-5.76l-1,3.86c-5.25-7.32-1.2-17.95-1.2-17.95,4.78,9,10.23,12.08,10.23,12.08l-4-.08c.18.37,1.44,3,4,3.43A3.33,3.33,0,0,0,80,82.16a2.25,2.25,0,0,0,.39-.36V60.48a6.61,6.61,0,0,1-2.63-2.81h0c-.74-1.43-8.2-2.1-8.2-2.1H67.6V50.68H78.41a6.65,6.65,0,0,1,10.53,0H99.67v4.88H97.83s-7.46.67-8.2,2.1h0A6.57,6.57,0,0,1,87,60.48V81.79a2,2,0,0,0,.39.37,3.34,3.34,0,0,0,2.52.42c2.56-.42,3.83-3.06,4-3.43l-4,.08s5.44-3,10.23-12.08C100.14,67.15,104.19,77.78,98.93,85.1Z"/><path class="cls-3" d="M84.1,18.62a50.24,50.24,0,1,0,50.24,50.24A50.3,50.3,0,0,0,84.1,18.62Zm36.74,50.25a37.27,37.27,0,1,1-10.21-25.55l14-.62-6.46,12.41A36.8,36.8,0,0,1,120.84,68.87Z"/><path class="cls-4" d="M149.21,68.07a1.63,1.63,0,0,0-1.64-1.63h-2.12a1.64,1.64,0,0,1-1.63-1.54,58.93,58.93,0,0,0-1-7.7A1.65,1.65,0,0,1,144,55.29l2-.55a1.62,1.62,0,0,0,1.15-2l-.4-1.49a1.62,1.62,0,0,0-2-1.15l-2,.54a1.63,1.63,0,0,1-2-1.07,58.43,58.43,0,0,0-3-7.16,1.65,1.65,0,0,1,.64-2.16l1.83-1a1.62,1.62,0,0,0,.59-2.23l-.77-1.34a1.62,1.62,0,0,0-2.23-.59L136,36.1a1.65,1.65,0,0,1-2.18-.52,60.57,60.57,0,0,0-4.73-6.16,1.64,1.64,0,0,1,.06-2.24l1.5-1.5a1.63,1.63,0,0,0,0-2.31l-1.09-1.09a1.63,1.63,0,0,0-2.31,0l-1.5,1.5a1.64,1.64,0,0,1-2.24.06,59.91,59.91,0,0,0-6.16-4.73,1.63,1.63,0,0,1-.52-2.18l1.06-1.84a1.64,1.64,0,0,0-.6-2.23L116,12.09a1.63,1.63,0,0,0-2.23.6l-1,1.83a1.65,1.65,0,0,1-2.15.64,58.57,58.57,0,0,0-7.17-3,1.63,1.63,0,0,1-1.07-2l.54-2a1.63,1.63,0,0,0-1.15-2l-1.49-.4a1.62,1.62,0,0,0-2,1.15L97.66,9a1.64,1.64,0,0,1-1.91,1.17,58.93,58.93,0,0,0-7.7-1,1.64,1.64,0,0,1-1.54-1.62V5.39a1.63,1.63,0,0,0-1.63-1.63H83.33A1.63,1.63,0,0,0,81.7,5.39V7.52a1.64,1.64,0,0,1-1.54,1.62,59.85,59.85,0,0,0-7.76,1A1.63,1.63,0,0,1,70.49,9l-.56-2a1.63,1.63,0,0,0-2-1.16l-1.49.41a1.63,1.63,0,0,0-1.15,2l.55,2a1.64,1.64,0,0,1-1.07,2,61.16,61.16,0,0,0-7.17,3,1.63,1.63,0,0,1-2.15-.63L54.4,12.72a1.63,1.63,0,0,0-2.23-.59l-1.34.77a1.63,1.63,0,0,0-.6,2.23L51.3,17a1.64,1.64,0,0,1-.52,2.18,58.85,58.85,0,0,0-6.16,4.73,1.64,1.64,0,0,1-2.24-.06l-1.5-1.5a1.65,1.65,0,0,0-2.31,0l-1.09,1.1a1.64,1.64,0,0,0,0,2.31L39,27.22a1.63,1.63,0,0,1,.07,2.24,58.87,58.87,0,0,0-4.72,6.17,1.64,1.64,0,0,1-2.18.52l-1.84-1.06a1.63,1.63,0,0,0-2.23.6L27.31,37a1.63,1.63,0,0,0,.6,2.23l1.83,1.05a1.65,1.65,0,0,1,.64,2.15,59.59,59.59,0,0,0-3,7.18,1.64,1.64,0,0,1-2,1.07l-2-.55a1.63,1.63,0,0,0-2,1.16L21,52.81a1.62,1.62,0,0,0,1.15,2l2.05.55a1.63,1.63,0,0,1,1.17,1.9,61.16,61.16,0,0,0-1,7.7,1.63,1.63,0,0,1-1.62,1.55H20.63A1.63,1.63,0,0,0,19,68.14v1.55a1.63,1.63,0,0,0,1.64,1.63h2.12a1.64,1.64,0,0,1,1.63,1.55,59,59,0,0,0,1,7.69,1.63,1.63,0,0,1-1.17,1.91l-2,.55A1.64,1.64,0,0,0,21,85l.4,1.49a1.64,1.64,0,0,0,2,1.16l2-.55a1.64,1.64,0,0,1,2,1.07,59.5,59.5,0,0,0,3,7.17,1.64,1.64,0,0,1-.64,2.15L28,98.56a1.63,1.63,0,0,0-.6,2.23l.77,1.33a1.64,1.64,0,0,0,2.23.6l1.84-1.07a1.65,1.65,0,0,1,2.18.52,59.16,59.16,0,0,0,4.73,6.16,1.64,1.64,0,0,1-.06,2.24l-1.5,1.5a1.64,1.64,0,0,0,0,2.31l1.09,1.09a1.63,1.63,0,0,0,2.31,0l1.49-1.5a1.64,1.64,0,0,1,2.24-.06,60.27,60.27,0,0,0,6.17,4.72,1.64,1.64,0,0,1,.52,2.18l-1.06,1.84a1.63,1.63,0,0,0,.6,2.23l1.34.77a1.63,1.63,0,0,0,2.23-.6l1-1.83a1.64,1.64,0,0,1,2.15-.64,60.12,60.12,0,0,0,7.17,3,1.63,1.63,0,0,1,1.07,2l-.54,2a1.64,1.64,0,0,0,1.16,2L68,132a1.63,1.63,0,0,0,2-1.15l.54-2.05a1.64,1.64,0,0,1,1.91-1.17,58.92,58.92,0,0,0,7.7,1,1.64,1.64,0,0,1,1.54,1.63v2.12A1.65,1.65,0,0,0,83.37,134h1.54a1.63,1.63,0,0,0,1.63-1.63v-2.12a1.64,1.64,0,0,1,1.54-1.63,58.93,58.93,0,0,0,7.7-1,1.63,1.63,0,0,1,1.91,1.17l.55,2a1.64,1.64,0,0,0,2,1.16l1.49-.4a1.63,1.63,0,0,0,1.15-2l-.54-2a1.64,1.64,0,0,1,1.07-2,58.57,58.57,0,0,0,7.17-3,1.65,1.65,0,0,1,2.15.64l1,1.83a1.63,1.63,0,0,0,2.23.59l1.34-.77a1.63,1.63,0,0,0,.6-2.23l-1.07-1.84a1.63,1.63,0,0,1,.52-2.17,60.57,60.57,0,0,0,6.16-4.73,1.64,1.64,0,0,1,2.24,0l1.5,1.5a1.63,1.63,0,0,0,2.31,0l1.09-1.09a1.63,1.63,0,0,0,0-2.31l-1.5-1.5a1.64,1.64,0,0,1-.06-2.24,59.07,59.07,0,0,0,4.72-6.16,1.64,1.64,0,0,1,2.18-.52l1.84,1.06a1.63,1.63,0,0,0,2.23-.6l.77-1.34a1.64,1.64,0,0,0-.6-2.23l-1.83-1a1.63,1.63,0,0,1-.63-2.15,59.44,59.44,0,0,0,3-7.17,1.64,1.64,0,0,1,2-1.07l2,.54a1.62,1.62,0,0,0,2-1.15l.4-1.49A1.62,1.62,0,0,0,146,83l-2-.55a1.64,1.64,0,0,1-1.17-1.91,58.93,58.93,0,0,0,1-7.7,1.62,1.62,0,0,1,1.62-1.54h2.13a1.63,1.63,0,0,0,1.63-1.63ZM84.1,122.88a54,54,0,1,1,54-54A54.08,54.08,0,0,1,84.1,122.88Z"/></svg>